<svg width="96" height="24" viewBox="0 0 96 24" fill="none" xmlns="http://www.w3.org/2000/svg">
<path fill-rule="evenodd" clip-rule="evenodd" d="M8.46 14.0361H12.093V15.4431C12.093 18.8661 10.539 20.3571 7.179 20.3571C3.84 20.3571 2.265 18.8871 2.265 15.4221V8.84906C2.265 6.47606 3.735 4.58606 7.179 4.58606C10.581 4.58606 12.093 6.51806 12.093 8.87006V10.2351H8.46V8.53406C8.46 7.73606 7.704 7.35806 7.137 7.35806C6.528 7.35806 5.898 7.69406 5.898 8.47106V15.9891C5.898 17.1231 6.381 17.6061 7.137 17.6061C7.914 17.6061 8.46 17.1651 8.46 16.0311V14.0361ZM17.658 13.6371V20.0001H14.025V4.92206H17.658V10.6131H20.031V4.92206H23.664V20.0001H20.031V13.6371H17.658ZM25.932 20.0001V4.92206H34.374V7.77806H29.565V10.6971H34.017V13.5531H29.565V17.1441H34.374V20.0001H25.932ZM36.159 4.92206H44.601V7.77806H39.792V10.7391H44.097V13.5951H39.792V20.0001H36.159V4.92206Z" fill="white"/>
<path fill-rule="evenodd" clip-rule="evenodd" d="M54.4 19.9999H47.491V4.87995H48.793V18.8239H54.4V19.9999ZM58.957 20.3569C54.946 20.3569 54.526 16.3039 54.526 12.4189C54.526 8.86995 54.946 4.52295 58.957 4.52295C63.115 4.52295 63.409 8.86995 63.409 12.4189C63.409 16.2409 63.094 20.3569 58.957 20.3569ZM58.957 19.2019C61.792 19.2019 62.107 15.9889 62.107 12.4189C62.107 9.39495 61.834 5.67795 58.957 5.67795C56.143 5.67795 55.828 9.14295 55.828 12.4189C55.828 15.7579 56.143 19.2019 58.957 19.2019ZM73.174 14.8759H74.476C74.476 17.8159 73.237 20.3569 70.213 20.3569C66.202 20.3569 65.845 16.3459 65.845 12.0199C65.845 8.91195 66.244 4.52295 70.255 4.52295C72.964 4.52295 74.392 6.66495 74.392 9.22695H73.048C72.943 7.44195 72.25 5.67795 70.213 5.67795C67.441 5.67795 67.147 9.39495 67.147 12.3139C67.147 15.6319 67.441 19.2019 70.36 19.2019C72.607 19.2019 73.174 16.6819 73.174 14.8759ZM77.626 14.1829H81.658L79.663 6.53895H79.621L77.626 14.1829ZM78.886 4.87995H80.398L84.451 19.9999H83.128L81.931 15.3379H77.353L76.114 19.9999H74.854L78.886 4.87995ZM93.082 19.9999H86.173V4.87995H87.475V18.8239H93.082V19.9999Z" fill="#FFB500"/>
</svg>
